<svg width="16" height="16" viewBox="0 0 16 16" fill="none" xmlns="http://www.w3.org/2000/svg">
<rect width="16" height="16" rx="8" fill="white"/>
<path d="M2.1618 7C1.59835 8.65388 2.57757 10.6501 4 11C2.89152 10.0885 2.19937 8.6242 2.1618 7" fill="black"/>
<path d="M4.78792 11.1145L4.75056 11.1064C4.75523 11.1077 4.7664 11.1095 4.78792 11.1145ZM2 10.3009C2.09929 11.5533 3.63234 12.3558 4.73249 11.8428C3.59986 11.5936 2.84856 11.3654 2 10.3009ZM11.0367 5.8352C11.7498 4.34406 10.7372 2.49927 9.19803 2.0984C10.3755 2.97898 11.074 4.35009 11.0367 5.8352ZM11.5161 4.8063C12.3673 4.03472 12.0241 2.49968 11.0426 2C11.5157 2.94965 11.6824 3.7518 11.5161 4.8063Z" fill="black"/>
<path d="M13.6835 4.46887C13.4808 4.32388 13.2327 4.24543 12.9776 4.24567C11.4375 4.24567 11.1614 6.12289 10.8197 6.8557C10.8197 6.8557 9.24049 3.76186 8.69123 2.74105C8.12488 1.68804 6.91587 1.90564 6.56173 2.47885C5.72053 1.66304 4.1311 2.32164 4.33371 3.31346C3.24289 3.23506 2.80198 4.24207 3.04413 4.88768C2.201 4.86328 1.8069 5.83909 2.09201 6.5377C2.10675 6.5741 3.60364 9.33094 4.00672 10.2702C4.05352 10.3792 4.10076 10.4958 4.15034 10.6186C4.47626 11.425 4.92272 12.5294 6.03962 13.4164C6.52049 13.7982 7.18622 14 7.96544 14C9.3388 14 10.868 13.3622 11.8613 12.3748C12.751 11.4906 13.1774 10.4052 13.0945 9.23574C13.0201 8.18452 13.3775 7.19411 13.6645 6.3981C13.9759 5.53429 14.2217 4.85188 13.6835 4.46887V4.46887ZM12.4125 9.20094C12.5863 11.5266 10.0954 13.4888 7.98211 13.4888C7.33647 13.4888 6.66774 13.3912 6.24992 13.0594C5.05181 12.1078 4.7511 10.9302 4.40381 10.1225C3.98898 9.15634 2.97082 7.29971 2.47734 6.3657C2.27538 5.98329 2.61284 5.16948 3.20057 5.16948L4.89558 8.54313L5.5378 8.90393C5.5378 8.90393 4.06699 5.90429 3.60129 4.87048C3.32944 4.26687 3.79791 3.53806 4.42924 3.63306L6.53352 7.83632L7.17596 8.19792L4.72332 3.35126C4.71349 2.49225 5.96952 2.47885 6.26146 2.98045C7.00029 4.25007 8.38733 7.03631 8.38733 7.03631L9.02934 7.39771L6.72694 2.82905C7.17661 2.27824 7.96993 2.35544 8.31188 3.02405C8.72265 3.82706 10.4621 7.31491 10.4621 7.31491C8.74488 7.91732 7.57263 9.66354 8.80002 11.385C7.8261 9.50294 9.55145 8.17292 10.5707 7.73332C10.9564 7.56671 11.0984 7.25171 11.0984 7.25171L11.0975 7.25191C11.2319 7.02411 11.224 6.7195 11.3843 6.2265C11.7316 5.15948 12.208 4.59407 12.9071 4.59407C13.0682 4.59407 13.2712 4.70688 13.3644 4.83548C13.8352 5.48569 12.2509 7.04011 12.4125 9.20094" fill="black"/>
</svg>
