<svg width="50" height="50" viewBox="0 0 50 50" fill="none" xmlns="http://www.w3.org/2000/svg">
<g clip-path="url(#clip0_382_9)">
<path d="M23.3627 0.013444C23.2553 0.0232096 22.9131 0.0573893 22.6051 0.0818034C15.5035 0.722038 8.85137 4.55329 4.63828 10.442C2.29219 13.7162 0.791797 17.4302 0.224805 21.3642C0.0244141 22.7373 0 23.1429 0 25.0048C0 26.8668 0.0244141 27.2724 0.224805 28.6455C1.58359 38.0332 8.26484 45.9207 17.3264 48.8429C18.9492 49.366 20.6598 49.7226 22.6051 49.9377C23.3627 50.0207 26.6373 50.0207 27.3949 49.9377C30.7527 49.5662 33.5973 48.7355 36.4027 47.3037C36.8328 47.0838 36.916 47.0252 36.8572 46.9761C36.8182 46.9468 34.9854 44.4888 32.7859 41.5175L28.7879 36.1175L23.7781 28.7043C21.0215 24.6285 18.7537 21.2957 18.7342 21.2957C18.7146 21.2908 18.6951 24.5847 18.6854 28.6064C18.6705 35.6484 18.6658 35.9318 18.5777 36.098C18.4508 36.3375 18.3529 36.4353 18.1477 36.5427C17.9912 36.6209 17.8543 36.6355 17.1164 36.6355H16.2707L16.0461 36.4939C15.9068 36.4066 15.7937 36.2833 15.7186 36.1371L15.6158 35.9172L15.6256 26.1191L15.6402 16.316L15.7918 16.1254C15.8699 16.0228 16.0361 15.891 16.1535 15.8273C16.3539 15.7297 16.432 15.7199 17.2775 15.7199C18.2746 15.7199 18.4408 15.759 18.6998 16.0424C18.7732 16.1205 21.4857 20.206 24.7311 25.1271C27.9766 30.048 32.4146 36.7675 34.5943 40.0662L38.5533 46.0623L38.7537 45.9304C40.5279 44.7771 42.4047 43.1351 43.8904 41.4246C47.0527 37.7937 49.0908 33.3664 49.7752 28.6457C49.9756 27.2724 50 26.8668 50 25.005C50 23.1429 49.9756 22.7375 49.7752 21.3642C48.4164 11.9765 41.7352 4.08903 32.6736 1.16676C31.0752 0.648796 29.3744 0.29196 27.4682 0.0769206C26.999 0.0280924 23.7684 -0.0256185 23.3627 0.013444V0.013444ZM33.5973 15.1334C33.8318 15.2506 34.0225 15.4756 34.0908 15.7101C34.1299 15.8371 34.1396 18.5543 34.1299 24.6775L34.1154 33.464L32.566 31.089L31.0117 28.714V22.3269C31.0117 18.1974 31.0312 15.8761 31.0605 15.7638C31.1387 15.4902 31.31 15.2752 31.5445 15.148C31.7449 15.0455 31.8182 15.0357 32.5855 15.0357C33.309 15.0357 33.4359 15.0455 33.5973 15.1334Z" fill="black"/>
</g>
<defs>
<clipPath id="clip0_382_9">
<rect width="50" height="50" fill="white"/>
</clipPath>
</defs>
</svg>
