<svg width="50" height="50" viewBox="0 0 50 50" fill="none" xmlns="http://www.w3.org/2000/svg">
<path d="M25 28.125C24.1712 28.125 23.3763 27.7957 22.7903 27.2097C22.2042 26.6236 21.875 25.8288 21.875 25C21.875 24.1712 22.2042 23.3763 22.7903 22.7902C23.3763 22.2042 24.1712 21.875 25 21.875C25.8288 21.875 26.6237 22.2042 27.2097 22.7902C27.7958 23.3763 28.125 24.1712 28.125 25C28.125 25.8288 27.7958 26.6236 27.2097 27.2097C26.6237 27.7957 25.8288 28.125 25 28.125ZM23.9 34.3625C24.2646 34.8 24.6312 35.225 25 35.6312C25.3687 35.225 25.7354 34.802 26.1 34.3625C25.3667 34.378 24.6333 34.378 23.9 34.3625V34.3625ZM19.7437 34.102C18.1439 33.9356 16.5546 33.6796 14.9833 33.3354C14.8271 34.0645 14.7083 34.7729 14.6292 35.452C14.2333 38.75 14.7854 40.7541 15.625 41.2375C16.4646 41.7229 18.475 41.1979 21.1354 39.2083C21.6833 38.7979 22.2354 38.3416 22.7896 37.8437C21.7052 36.6544 20.6883 35.4052 19.7437 34.102V34.102ZM35.0167 33.3354C33.4458 33.6818 31.8564 33.9378 30.2562 34.102C29.3117 35.4052 28.2948 36.6544 27.2104 37.8437C27.7646 38.3437 28.3167 38.7979 28.8646 39.2083C31.525 41.1979 33.5354 41.7229 34.375 41.2375C35.2146 40.7541 35.7646 38.75 35.3729 35.452C35.2869 34.7415 35.1687 34.0352 35.0187 33.3354H35.0167ZM38.0375 32.5291C39.2396 38.027 38.6083 42.4041 35.9375 43.9458C33.2667 45.4875 29.1604 43.8458 25 40.0562C20.8396 43.8458 16.7333 45.4854 14.0625 43.9437C11.3917 42.402 10.7604 38.027 11.9604 32.527C6.59792 30.8208 3.125 28.0833 3.125 25C3.125 21.9166 6.59792 19.1812 11.9604 17.4708C10.7604 11.9729 11.3917 7.59579 14.0625 6.05412C16.7333 4.51246 20.8396 6.15412 25 9.94371C29.1604 6.15412 33.2667 4.51454 35.9375 6.05621C38.6083 7.59787 39.2396 11.9729 38.0396 17.4729C43.4021 19.1791 46.875 21.9166 46.875 25C46.875 28.0833 43.4021 30.8187 38.0396 32.5291H38.0375ZM22.7875 12.1562C22.2577 11.6766 21.7064 11.2213 21.1354 10.7916C18.475 8.80204 16.4646 8.27704 15.625 8.76246C14.7854 9.24579 14.2354 11.25 14.6271 14.5479C14.7104 15.2291 14.8271 15.9354 14.9812 16.6645C16.5532 16.3202 18.1432 16.0643 19.7437 15.8979C20.7333 14.5375 21.7542 13.2854 22.7896 12.1562H22.7875ZM30.2562 15.8979C31.9271 16.0729 33.5229 16.3333 35.0167 16.6645C35.1729 15.9354 35.2917 15.227 35.3708 14.5479C35.7667 11.25 35.2146 9.24579 34.375 8.76246C33.5354 8.27704 31.525 8.80204 28.8646 10.7916C28.2929 11.2213 27.7409 11.6766 27.2104 12.1562C28.2458 13.2854 29.2667 14.5375 30.2562 15.8979V15.8979ZM26.1 15.6375C25.7354 15.2 25.3687 14.775 25 14.3687C24.6312 14.775 24.2646 15.1979 23.9 15.6375C24.6333 15.6219 25.3667 15.6219 26.1 15.6375V15.6375ZM17.4417 30.6333C17.0616 30.0064 16.6948 29.3716 16.3417 28.7291C16.1437 29.2645 15.9604 29.7916 15.7937 30.3145C16.3292 30.4312 16.8792 30.5375 17.4396 30.6333H17.4417ZM21.4667 31.1208C23.819 31.2955 26.181 31.2955 28.5333 31.1208C29.8608 29.1707 31.0419 27.1248 32.0667 25C31.0419 22.8751 29.8608 20.8292 28.5333 18.8791C26.181 18.7044 23.819 18.7044 21.4667 18.8791C20.1392 20.8292 18.9581 22.8751 17.9333 25C18.9581 27.1248 20.1392 29.1707 21.4667 31.1208V31.1208ZM33.6583 21.2708C33.8562 20.7354 34.0396 20.2083 34.2063 19.6854C33.6601 19.5669 33.1113 19.4606 32.5604 19.3666C32.9398 19.9935 33.3059 20.6284 33.6583 21.2708ZM12.7708 20.4937C12.0625 20.7229 11.3917 20.9729 10.7625 21.2437C7.71042 22.552 6.25 24.0312 6.25 25C6.25 25.9687 7.70833 27.4479 10.7625 28.7562C11.3917 29.027 12.0625 29.277 12.7708 29.5062C13.2333 28.0479 13.8062 26.5354 14.4896 25C13.833 23.5311 13.2592 22.0267 12.7708 20.4937V20.4937ZM15.7917 19.6854C15.9604 20.2062 16.1437 20.7354 16.3417 21.2687C16.6949 20.627 17.0616 19.9928 17.4417 19.3666C16.8792 19.4625 16.3292 19.5687 15.7937 19.6854H15.7917ZM37.2292 29.5062C37.9375 29.277 38.6083 29.027 39.2375 28.7562C42.2896 27.4479 43.75 25.9687 43.75 25C43.75 24.0312 42.2917 22.552 39.2375 21.2437C38.5797 20.9635 37.9096 20.7132 37.2292 20.4937C36.7667 21.952 36.1937 23.4645 35.5104 25C36.1937 26.5354 36.7667 28.0458 37.2292 29.5062V29.5062ZM34.2083 30.3145C34.0361 29.783 33.8527 29.2551 33.6583 28.7312C33.3051 29.3729 32.9384 30.0071 32.5583 30.6333C33.1208 30.5375 33.6708 30.4312 34.2063 30.3145H34.2083Z" fill="black"/>
</svg>
