<svg width="50" height="50" viewBox="0 0 50 50" fill="none" xmlns="http://www.w3.org/2000/svg">
<path d="M31.952 49.9562L46.9854 46.7042C46.9854 46.7042 41.5604 10.0104 41.5166 9.76667C41.4791 9.525 41.2791 9.36667 41.077 9.36667C40.8749 9.36667 37.0583 9.08333 37.0583 9.08333C37.0583 9.08333 34.402 6.42917 34.0604 6.14375C33.9866 6.07715 33.9011 6.02487 33.8083 5.98958L31.9041 49.9562H31.952V49.9562ZM24.3958 23.5521C24.3958 23.5521 22.7083 22.6687 20.6999 22.6687C17.6854 22.6687 17.5666 24.5562 17.5666 25.0458C17.5666 27.6125 24.3166 28.6187 24.3166 34.6896C24.3166 39.4708 21.3166 42.5229 17.2208 42.5229C12.3166 42.5229 9.84577 39.4708 9.84577 39.4708L11.1916 35.125C11.1916 35.125 13.7854 37.3458 15.9416 37.3458C16.2032 37.3544 16.4638 37.3108 16.7083 37.2174C16.9527 37.124 17.1761 36.9827 17.3653 36.8019C17.5544 36.621 17.7056 36.4043 17.81 36.1643C17.9143 35.9243 17.9697 35.6658 17.9729 35.4042C17.9729 32.0312 12.4437 31.875 12.4437 26.3229C12.3729 21.6625 15.7166 17.1229 22.4999 17.1229C25.1187 17.1229 26.4062 17.875 26.4062 17.875L24.4374 23.5312L24.3958 23.5521V23.5521ZM23.2708 1.72917C23.5541 1.72917 23.8354 1.80833 24.1145 2.01042C22.0645 2.97917 19.8145 5.425 18.8895 10.3271C17.5841 10.7491 16.2721 11.1505 14.9541 11.5312C16.0354 7.8125 18.6479 1.75 23.2708 1.75V1.72917ZM25.8437 7.87292V8.15417C24.2729 8.6375 22.5458 9.1625 20.8562 9.6875C21.827 5.98542 23.6333 4.17708 25.1999 3.49792C25.602 4.54167 25.8437 5.94792 25.8437 7.87292V7.87292ZM26.9666 3.21875C28.4124 3.37292 29.3437 5.025 29.9437 6.875C29.2166 7.1125 28.4124 7.35625 27.5312 7.6375V7.1125C27.5312 5.54583 27.3312 4.25625 26.9666 3.21458V3.21875V3.21875ZM33.1999 5.90417C33.1583 5.90417 33.0749 5.94792 33.0374 5.94792C32.9999 5.94792 32.4354 6.10417 31.5499 6.38542C30.6687 3.81667 29.0999 1.44792 26.3249 1.44792H26.0854C25.2812 0.435417 24.3104 0 23.4687 0C16.9979 0 13.9062 8.07708 12.9374 12.1792C10.4499 12.9396 8.63952 13.5042 8.43744 13.5833C7.03119 14.0271 6.9916 14.0667 6.8291 15.3958C6.67285 16.3583 3.0166 44.6937 3.0166 44.6937L31.2687 50L33.1999 5.90417Z" fill="black"/>
</svg>
