<svg width="50" height="50" viewBox="0 0 50 50" fill="none" xmlns="http://www.w3.org/2000/svg">
<path d="M37.0875 17.8328C37.0875 17.8328 33.0333 30.5474 32.7021 31.5974C31.6812 23.6288 30.6506 15.6614 29.6104 7.69531C22.7021 7.69531 19.0083 12.612 17.0562 17.8016L11.7125 31.6286C11.6813 30.637 10.9625 17.9516 10.9625 17.9516C10.5375 11.5932 4.7125 7.7224 0 7.7224L5.70625 42.3057C12.9437 42.2745 16.8458 37.387 18.8896 32.1974C18.8896 32.1974 23.2437 20.9516 23.4229 20.4411C23.4542 20.9203 26.5479 42.3036 26.5479 42.3036C33.8146 42.3036 37.7188 37.7161 39.8188 32.7078L50 7.72448C42.8229 7.72448 39.0396 12.612 37.0875 17.8307V17.8328Z" fill="black"/>
</svg>
